<?xml version="1.0" encoding="UTF-8"?><svg id="Layer_2" xmlns="http://www.w3.org/2000/svg" viewBox="0 0 488.91 428.26"><defs><style>.cls-1{opacity:.06;}.cls-2{fill:#fff;}.cls-3{fill:#b22066;}.cls-4{fill:#7b3366;}</style></defs><g id="Layer_1-2"><g><g class="cls-1"><path class="cls-4" d="M321.75,378.21c26.8-4.76,54.08-6.91,81.28-6.65,21.73,.21,45.96,1.08,62.14-13.42,9.09-8.14,13.98-19.9,17.87-31.47,4.01-11.93,7.27-24.59,5.25-37.01-1.98-12.16-8.84-22.92-15.99-32.96-13.13-18.43-27.87-35.94-37.7-56.32-9.83-20.38-14.28-44.7-5.72-65.64,3.4-8.31,8.7-15.76,11.82-24.19,4.64-12.55,1.06-24.43-7.31-34.43-21.1-25.22-60.6-41.84-90.33-53.94C310,8.74,274.69,.23,238.87,0c-35.56-.22-71.53,8.5-102.51,26.1-26.53,15.07-56.82,40.53-64.96,71.13-4.96,18.64-1.32,38.36-2,57.63-1.07,30.14-12.71,58.88-26.07,85.91-13.36,27.04-28.7,53.31-38.06,81.98-4.49,13.75-7.54,28.8-3.08,42.56,4.13,12.74,14.33,22.8,25.91,29.53,15.16,8.8,33.07,13.33,49.71,18.5,18.55,5.77,37.37,10.96,56.69,13.36,21.55,2.69,46.7,2.59,66.91-6.08,21.53-9.23,41.38-20.69,63.82-28.15,18.46-6.14,37.37-10.87,56.52-14.27Z"/></g><path class="cls-4" d="M203.91,100.27c-5.5,0-10-4.5-10-10v-2.5c0-5.5-4.5-10-10-10H103.04c-5.5,0-10,4.5-10,10v2.5c0,5.5-4.5,10-10,10h-11.21c-5.5,0-10,4.5-10,10v191.58c0,5.5,4.5,10,10,10H374.24c5.5,0,10-4.5,10-10V110.27c0-5.5-4.5-10-10-10H203.91Z"/><g><path class="cls-4" d="M103.76,350.79c-9.37,0-17-7.63-17-17V142.2c0-9.37,7.63-17,17-17h11.21c1.63,0,3-1.37,3-3v-2.5c0-9.37,7.63-17,17-17h80.87c9.37,0,17,7.63,17,17v2.5c0,1.63,1.37,3,3,3h170.33c9.37,0,17,7.63,17,17v191.58c0,9.37-7.63,17-17,17H103.76Z"/><path class="cls-2" d="M215.84,109.7c5.5,0,10,4.5,10,10v2.5c0,5.5,4.5,10,10,10h170.34c5.5,0,10,4.5,10,10v191.58c0,5.5-4.5,10-10,10H103.76c-5.5,0-10-4.5-10-10V142.2c0-5.5,4.5-10,10-10h11.21c5.5,0,10-4.5,10-10v-2.5c0-5.5,4.5-10,10-10h80.87m0-14h-80.87c-12.73,0-23.17,9.96-23.95,22.5h-7.25c-13.23,0-24,10.77-24,24v191.58c0,13.23,10.77,24,24,24H406.18c13.23,0,24-10.77,24-24V142.2c0-13.23-10.77-24-24-24H239.79c-.78-12.54-11.22-22.5-23.95-22.5h0Z"/></g><g><rect class="cls-3" x="115.06" y="152.05" width="336.41" height="225.58" rx="17" ry="17"/><path class="cls-2" d="M434.48,159.05c5.5,0,10,4.5,10,10v191.58c0,5.5-4.5,10-10,10H132.06c-5.5,0-10-4.5-10-10V169.05c0-5.5,4.5-10,10-10H434.48m0-14H132.06c-13.23,0-24,10.77-24,24v191.58c0,13.23,10.77,24,24,24H434.48c13.23,0,24-10.77,24-24V169.05c0-13.23-10.77-24-24-24h0Z"/></g><g><g><g><rect class="cls-2" x="208.86" y="223.35" width="55.93" height="14" transform="translate(-93.52 234.91) rotate(-45)"/><rect class="cls-2" x="229.83" y="202.39" width="14" height="55.93" transform="translate(-93.52 234.93) rotate(-45)"/></g><g><rect class="cls-2" x="301.75" y="223.35" width="55.93" height="14" transform="translate(-66.31 300.61) rotate(-45)"/><rect class="cls-2" x="322.72" y="202.39" width="14" height="55.93" transform="translate(-66.31 300.61) rotate(-45)"/></g></g><path class="cls-2" d="M215.6,317.74l-6.16-12.57c22.85-11.2,48.38-17.11,73.83-17.11s50.98,5.92,73.83,17.11l-6.16,12.57c-20.95-10.26-44.34-15.69-67.67-15.69s-46.72,5.42-67.67,15.69Z"/></g></g></g></svg>