<?xml version="1.0" encoding="UTF-8"?><svg id="Layer_1" xmlns="http://www.w3.org/2000/svg" viewBox="0 0 624.83 625.13"><defs><style>.cls-1{fill:#fcfcfc;}.cls-2{fill:#fff;}.cls-3{fill:#b22066;}.cls-4,.cls-5{fill:#7b3366;}.cls-5{stroke:#7b3366;stroke-miterlimit:10;stroke-width:10px;}.cls-6{fill:none;opacity:.06;}</style></defs><g class="cls-6"><path class="cls-4" d="m472.51,166.55c-6.15,0-11.34-4.07-13.89-10.88-2.62-7,1.99-11.68,3.72-13.43,15.24-15.46,30.86-31.07,47.73-47.74,1.65-1.63,3.62-2.38,5.54-3.1.82-.31,1.66-.63,2.54-1.04l2.72-1.25,2.38,1.8c.64.48,1.4.97,2.21,1.48,2.25,1.43,4.8,3.05,6.51,5.74,3.75,5.9,2.67,12.76-2.9,18.35-6.25,6.28-12.52,12.54-18.79,18.81l-5.89,5.88c-1.98,1.98-3.96,3.97-5.93,5.96-4.61,4.63-9.37,9.43-14.15,14.08-3.59,3.49-7.67,5.34-11.81,5.34Z"/><path class="cls-4" d="m520.25,94.91c2.57,1.94,5.9,3.38,7.51,5.91,2.69,4.24,1.3,8.61-2.22,12.14-8.21,8.24-16.44,16.46-24.67,24.69-6.67,6.67-13.27,13.41-20.03,19.98-2.73,2.65-5.63,3.92-8.32,3.92-3.89,0-7.34-2.66-9.2-7.63-1.36-3.64.56-6.1,2.6-8.17,15.78-16.01,31.69-31.89,47.69-47.69,1.38-1.36,3.67-1.78,6.66-3.16m1.26-11.58l-5.43,2.5c-.73.34-1.46.61-2.23.91-2.17.83-4.88,1.85-7.28,4.22-16.91,16.7-32.54,32.33-47.78,47.78-5.7,5.78-7.33,12.07-4.85,18.7,3.26,8.71,10.37,14.12,18.57,14.12,5.46,0,10.75-2.34,15.29-6.75,4.81-4.68,9.59-9.49,14.21-14.14,1.97-1.98,3.94-3.97,5.92-5.94l6.01-6c6.23-6.23,12.46-12.46,18.68-18.7,7.22-7.25,8.59-16.66,3.58-24.56-2.3-3.63-5.62-5.74-8.05-7.28-.72-.46-1.4-.89-1.88-1.25l-4.77-3.6h0Z"/><path class="cls-4" d="m148.34,166.38c-.5-.3-1.08-.61-1.69-.94-1.64-.87-3.51-1.86-5.13-3.46-12.97-12.83-26.08-25.95-38.75-38.64l-7.01-7.02c-6.92-6.93-7.45-13.76-1.58-20.3,3.05-3.4,6.96-5.27,11.01-5.27,3.83,0,7.5,1.62,10.63,4.69,13.85,13.59,28.49,28.23,46.08,46.07,4.61,4.67,5.74,10.73,3.11,16.63-2.83,6.35-8.04,8.03-13.25,8.9l-1.83.31-1.59-.97Z"/><path class="cls-4" d="m105.2,95.76c2.41,0,4.88,1.06,7.13,3.26,15.48,15.2,30.79,30.57,46.02,46.01,2.96,3.01,4.03,6.76,2.11,11.08-1.81,4.07-4.97,5.24-9.51,6-1.99-1.21-4.3-2.09-5.91-3.68-15.31-15.14-30.52-30.4-45.74-45.63-4.83-4.83-5.69-8.64-1.39-13.43,2.12-2.37,4.67-3.61,7.29-3.61m0-10h0c-5.49,0-10.72,2.46-14.73,6.93-4.12,4.59-5.87,9.53-5.2,14.67.75,5.71,4.33,9.87,6.96,12.5l7.1,7.11c12.65,12.66,25.72,25.76,38.68,38.56,2.15,2.12,4.55,3.4,6.31,4.32.54.29,1.06.56,1.43.79l3.18,1.94,3.67-.61c3.8-.63,12.69-2.11,17-11.79,3.46-7.76,1.92-16.05-4.12-22.17-17.61-17.85-32.27-32.51-46.14-46.13-4.08-4-8.97-6.12-14.13-6.12h0Z"/><path class="cls-5" d="m113.23,525.22c-6.53,6.46-14.64,4.59-17.63-3.54-1.36-3.7.56-6.13,2.56-8.16,15.76-16.03,31.69-31.89,47.61-47.76,3.07-3.06,6.7-2.43,10.35-1.12,3.78,1.37,4.89,4.43,5.46,9.39-.98,1.7-2.02,4.73-4.04,6.79l-44.31,44.4Z"/><path class="cls-4" d="m520.15,534.11c-.97,0-1.98-.08-3.01-.25-2.8-.46-5.59-1.84-7.46-3.69-15.62-15.46-31.45-31.29-47.06-47.04-5.08-5.12-6.14-10.43-3.15-15.78,1.67-2.99,4.79-8.56,12.78-9.46l1.62-.18,1.41.81c.71.4,1.51.79,2.36,1.21,2.17,1.05,4.63,2.25,6.68,4.26,14.33,14.05,28.72,28.52,42.63,42.5l1.82,1.83c6.98,7.01,5.79,13.83,3.57,18.32-2.39,4.83-6.73,7.48-12.2,7.48Z"/><path class="cls-4" d="m472.8,462.85c2.7,1.54,5.88,2.59,8.02,4.69,14.93,14.64,29.67,29.47,44.41,44.29,4.06,4.08,4.88,8.03,2.63,12.57-1.67,3.36-4.46,4.71-7.72,4.71-.72,0-1.45-.06-2.2-.19-1.68-.27-3.55-1.13-4.74-2.31-15.75-15.6-31.43-31.27-47.03-47.01-2.65-2.67-4.6-5.77-2.34-9.82,1.89-3.38,3.95-6.37,8.98-6.93m2.12-10.3l-3.24.36c-10.55,1.18-14.78,8.76-16.59,11.99-2.37,4.24-5,12.7,3.96,21.74,15.63,15.76,31.47,31.6,47.1,47.07,2.62,2.6,6.33,4.45,10.17,5.07,1.29.21,2.58.32,3.81.32,7.37,0,13.45-3.74,16.68-10.26,2.41-4.87,5.04-14.47-4.5-24.06l-1.85-1.86c-13.91-13.99-28.3-28.45-42.65-42.52-2.63-2.58-5.61-4.02-8-5.18-.77-.38-1.51-.73-2.07-1.05l-2.83-1.61h0Z"/><path class="cls-4" d="m592.73,326.99c-6.9,0-13.81,0-20.71,0h-19.38c-4.4,0-8.8,0-13.2,0-8.8-.03-14.5-5.68-14.51-14.4,0-8.78,5.67-14.47,14.46-14.48,12.27-.02,24.55-.03,36.82-.03,9.28,0,18.57,0,27.85.02,5.78,0,10.69,2.37,13.45,6.48,2.64,3.92,3.03,8.94,1.08,13.76-2.27,5.59-7.24,8.67-14,8.67h-11.86Z"/><path class="cls-4" d="m576.24,303.06c9.27,0,18.54,0,27.81.02,8.57.01,12.68,6.52,9.91,13.36-1.62,4-5.14,5.55-9.37,5.55,0,0,0,0,0,0-10.85,0-21.71,0-32.56-.01-6.4,0-12.8,0-19.2,0-4.45,0-8.91,0-13.36-.02-6.06-.02-9.52-3.48-9.53-9.41,0-5.96,3.44-9.47,9.46-9.47,12.28-.02,24.57-.03,36.85-.03m0-10c-12.29,0-24.57,0-36.86.03-11.47.02-19.47,8.03-19.45,19.49.01,11.39,8.03,19.36,19.49,19.4,4.47.01,8.93.02,13.39.02,3.2,0,6.4,0,9.61,0,3.2,0,6.4,0,9.59,0,6.86,0,13.73,0,20.61,0h11.95c8.82,0,15.61-4.3,18.65-11.79,2.59-6.39,2.02-13.1-1.57-18.43-3.71-5.51-10.12-8.68-17.59-8.69-9.28-.01-18.55-.02-27.82-.02h0Z"/><path class="cls-4" d="m70.71,327.01c-3.32,0-6.63,0-9.95,0-3.21,0-6.42,0-9.63,0s-6.25,0-9.37,0c-3.13,0-6.26,0-9.39,0-4.31,0-8.62,0-12.93-.04-8.78-.06-14.45-5.74-14.44-14.47,0-8.73,5.71-14.38,14.52-14.4,11.49-.03,22.99-.05,34.48-.05s20.96.02,30.29.07c8.74.04,14.74,5.28,15.65,13.67.38,3.45-.79,6.9-3.29,9.71-3.02,3.39-7.66,5.44-12.41,5.47-4.51.03-9.03.04-13.54.04Z"/><path class="cls-4" d="m54.02,303.04c10.09,0,20.17.02,30.25.07,7.22.04,10.18,4.38,10.71,9.22.55,5.03-4.71,9.6-10.76,9.64-4.52.03-9.04.04-13.56.04-6.51,0-13.01-.02-19.52-.02-6.23,0-12.47.02-18.7.02-4.32,0-8.64,0-12.96-.04-6.08-.04-9.49-3.55-9.48-9.46,0-5.87,3.45-9.39,9.53-9.41,11.49-.03,22.99-.05,34.48-.05m0-10c-12.01,0-24.19.03-34.51.05C8.03,293.13.01,301.1,0,312.49c-.01,11.38,7.97,19.39,19.41,19.47,3.84.03,7.98.04,13.03.04,3.12,0,6.24,0,9.37,0,3.11,0,6.22,0,9.34,0,3.21,0,6.42,0,9.63,0,3.3,0,6.59,0,9.89,0,5.28,0,9.61-.01,13.63-.04,6.14-.04,12.16-2.71,16.11-7.14,3.45-3.88,5.06-8.7,4.53-13.58-1.2-10.96-9.29-18.07-20.6-18.13-9.34-.05-19.25-.07-30.3-.07h0Z"/><path class="cls-4" d="m311.35,100.07c-2.92,0-7.12-.97-10.54-5.59-1.66-2.24-2.66-5.24-2.68-8.02-.1-20.2-.13-41.51-.07-67.06.02-7.55,5.45-13.86,12.37-14.35.48-.03.95-.05,1.41-.05,7.31,0,12.61,4.28,14.19,11.44l.82,3.4.03,17.2c.03,15.86.06,31.73.06,47.59,0,6.83-4.38,12.73-10.9,14.7-1.62.49-3.2.74-4.7.74Z"/><path class="cls-4" d="m311.85,10c4.95,0,8.25,2.66,9.31,7.57.23.96.46,1.92.7,2.88.03,21.4.08,42.79.09,64.19,0,4.37-2.69,8.51-7.34,9.91-1.16.35-2.25.53-3.25.53-2.65,0-4.77-1.21-6.52-3.57-1.02-1.37-1.69-3.36-1.7-5.07-.12-22.34-.12-44.68-.07-67.02.01-5.05,3.48-9.07,7.72-9.38.36-.03.71-.04,1.05-.04m0-10h0c-.58,0-1.17.02-1.76.06-9.51.68-16.99,9.17-17.01,19.33-.06,25.61-.04,46.93.07,67.1.02,3.8,1.39,7.9,3.66,10.96,3.64,4.91,8.81,7.62,14.56,7.62,1.98,0,4.05-.32,6.14-.95,8.65-2.61,14.45-10.44,14.45-19.49,0-15.81-.03-31.88-.06-47.42l-.03-16.78v-1.19s-.28-1.15-.28-1.15l-.3-1.24-.37-1.54c-2.1-9.45-9.39-15.32-19.06-15.32h0Z"/><path class="cls-4" d="m311.84,620.13c-.71,0-1.44-.05-2.17-.14-6.43-.83-11.65-7.22-11.66-14.26,0-21.73,0-43.45.03-65.17,0-9.24,5.36-15.5,13.32-15.57h.16c8.89,0,15.37,6.67,15.41,15.86.05,12.08.04,24.36.02,36.24v7.24c-.01,4.64-.04,9.29-.07,13.93l-.04,6.98-.82,3.39c-1.54,7-7.11,11.51-14.19,11.51Z"/><path class="cls-4" d="m311.52,529.98c6.05,0,10.39,4.42,10.41,10.89.06,14.48.03,28.96.01,43.45,0,6.77-.06,13.53-.1,20.3-.23.96-.46,1.92-.7,2.88-1.03,4.74-4.64,7.64-9.32,7.64-.5,0-1.01-.03-1.53-.1-3.93-.5-7.29-4.74-7.29-9.3,0-21.72,0-43.45.03-65.17,0-6.53,3.18-10.53,8.36-10.58.04,0,.08,0,.11,0m0-10h-.2c-10.75.1-18.27,8.56-18.28,20.57-.02,21.73-.03,43.45-.03,65.18,0,9.62,7.04,18.07,16.02,19.22.94.12,1.88.18,2.8.18,9.36,0,17-6.18,19.06-15.38l.44-1.82.23-.96.27-1.13v-1.17c.02-2.11.03-4.21.04-6.32.03-4.59.06-9.34.06-14.03v-7.08c.02-11.93.04-24.27-.01-36.42-.05-11.88-8.83-20.84-20.41-20.84h0Z"/><path class="cls-4" d="m397.68,117.42c-1.69,0-3.28-.32-4.72-.96-7.46-3.28-10.58-11.91-7.25-20.06,1.9-4.66,3.79-9.44,5.61-14.05,2.39-6.05,4.86-12.31,7.41-18.44,2.94-7.03,7.51-10.59,13.58-10.59h.18c7.24.09,11.83,3,13.64,8.67.36,1.12.62,2.19.92,3.43.14.58.3,1.22.48,1.93l.4,1.54-.57,1.49c-.59,1.54-1.19,3.11-1.79,4.71-1.39,3.66-2.82,7.44-4.33,11.22-1.56,3.91-3.18,7.85-4.75,11.66-1.29,3.14-2.59,6.28-3.86,9.43-2.3,5.71-8.73,10.02-14.94,10.02Z"/><path class="cls-4" d="m412.31,58.32s.08,0,.12,0c3.74.05,7.54.8,8.94,5.19.46,1.43.76,2.91,1.31,5.08-1.93,5.04-3.95,10.48-6.1,15.87-2.82,7.05-5.77,14.04-8.6,21.08-1.59,3.95-6.3,6.89-10.3,6.89-.96,0-1.88-.17-2.71-.53-5.01-2.2-6.88-8.08-4.63-13.6,4.4-10.79,8.51-21.7,13-32.45,1.62-3.89,4.15-7.52,8.97-7.52m0-10h0c-4.82,0-9.19,1.77-12.65,5.13-2.24,2.18-4.06,4.97-5.55,8.54-2.58,6.18-5.06,12.47-7.46,18.55-1.81,4.6-3.69,9.35-5.58,13.98-4.3,10.55.03,22.2,9.86,26.53,2.08.91,4.35,1.38,6.74,1.38,8.27,0,16.5-5.53,19.58-13.15,1.27-3.14,2.59-6.35,3.86-9.44,1.57-3.81,3.19-7.75,4.75-11.67,1.53-3.84,2.98-7.66,4.38-11.35.6-1.58,1.19-3.13,1.77-4.65l1.14-2.97-.79-3.09c-.18-.69-.33-1.31-.46-1.87-.31-1.28-.6-2.49-1.02-3.78-1.43-4.47-5.72-11.99-18.34-12.14h-.24Z"/><path class="cls-4" d="m211.52,571.89c-1.89,0-3.71-.39-5.4-1.15-7.89-3.57-11.1-11.56-7.82-19.43,2.49-5.98,4.99-12.08,7.4-17.98,1.69-4.13,3.38-8.26,5.08-12.38.76-1.85,1.66-3.59,2.43-5.05,2.76-5.19,7.12-8.05,12.27-8.05,1.03,0,2.1.12,3.17.34,10.14,2.15,11.32,10.52,11.33,16.62v.92s-.33.86-.33.86c-.34.91-.73,1.96-1.16,3.11-1.13,3.05-2.54,6.84-4.07,10.61-2.56,6.32-5.25,12.69-7.86,18.85l-1.55,3.67c-2.29,5.42-7.71,9.05-13.5,9.05Z"/><path class="cls-4" d="m225.49,512.85c.68,0,1.39.08,2.14.23,5.15,1.09,7.36,4.16,7.36,11.74-1.25,3.3-3.12,8.5-5.19,13.61-3.05,7.52-6.23,14.98-9.38,22.46-1.56,3.69-5.26,6-8.9,6-1.14,0-2.28-.23-3.34-.71-5.52-2.5-7.51-7.58-5.27-12.95,4.22-10.1,8.31-20.26,12.49-30.38.65-1.57,1.43-3.1,2.23-4.61,1.79-3.36,4.36-5.4,7.86-5.4m0-10h0c-6.99,0-13.07,3.9-16.69,10.7-.83,1.56-1.79,3.44-2.64,5.48-1.71,4.15-3.41,8.3-5.11,12.45-2.4,5.88-4.89,11.95-7.37,17.9-4.32,10.34.05,21.24,10.37,25.91,2.34,1.06,4.85,1.6,7.46,1.6,7.78,0,15.05-4.87,18.11-12.11l1.55-3.68c2.61-6.17,5.31-12.56,7.88-18.91,1.55-3.83,2.97-7.66,4.12-10.73.43-1.15.81-2.19,1.16-3.09l.65-1.72v-1.84c-.01-12.13-5.16-19.37-15.3-21.51-1.41-.3-2.83-.45-4.2-.45h0Z"/><path class="cls-4" d="m100.27,240.67c-1.89-.74-3.79-1.48-5.68-2.22-4.27-1.67-8.69-3.39-13.03-5.15-2.78-1.13-5.57-2.31-8.27-3.46-3.39-1.44-6.89-2.93-10.35-4.29-5.35-2.11-9.1-6.75-9.78-12.12-.63-4.93,1.46-9.67,5.59-12.69,2.28-1.66,5.62-2.62,9.16-2.62,1.92,0,3.74.29,5.29.84,11.54,4.13,22.99,8.92,34.06,13.56l1.64.69c6.04,2.53,9.51,9.74,7.9,16.4-1.01,4.17-4.22,9.52-13.77,11.32l-1.41.27-1.34-.53Z"/><path class="cls-4" d="m67.91,203.12c1.31,0,2.57.18,3.61.55,11.97,4.28,23.71,9.23,35.45,14.15,3.96,1.66,5.96,6.51,4.97,10.61-1.01,4.18-4.45,6.57-9.83,7.58-6.22-2.45-12.47-4.84-18.66-7.35-6.24-2.54-12.4-5.3-18.66-7.77-7.2-2.84-9.24-11.62-3.08-16.11,1.5-1.1,3.92-1.66,6.21-1.66m0-10h0c-2.69,0-7.83.47-12.1,3.58-5.63,4.11-8.47,10.59-7.61,17.36.92,7.17,5.86,13.36,12.91,16.13,3.39,1.34,6.87,2.82,10.23,4.24,2.72,1.15,5.52,2.35,8.34,3.49,4.37,1.77,8.81,3.51,13.1,5.18,1.89.74,3.78,1.47,5.67,2.22l2.68,1.05,2.83-.53c12.81-2.41,16.59-10.46,17.71-15.05,2.22-9.14-2.44-18.68-10.82-22.2l-1.66-.69c-11.12-4.66-22.63-9.48-34.29-13.65-2.08-.74-4.49-1.14-6.97-1.14h0Z"/><path class="cls-4" d="m66.53,428.67c-3.73,0-8.9-1.74-12.33-10.01-2.55-6.17.21-13.42,6.3-16.51,6-3.05,12.23-5.71,18.25-8.28l1.79-.76c4.72-2.02,9.49-3.8,13.98-5.45,1.68-.62,3.34-1.06,4.93-1.48.65-.17,1.31-.35,1.96-.53l.37-.11.39-.05c.63-.08,1.25-.12,1.86-.12,5.58,0,9.78,3.13,12.48,9.3,1.34,3.06,1.27,7.06-.18,10.69-1.33,3.33-3.58,5.81-6.34,6.97-14.78,6.21-27.06,11.12-38.66,15.43-1.63.61-3.25.92-4.79.92Z"/><path class="cls-4" d="m104.03,390.37c4.25,0,6.43,2.94,7.9,6.3,1.57,3.6-.42,9.59-3.88,11.04-12.73,5.35-25.53,10.54-38.47,15.36-1.09.4-2.1.6-3.05.6-3.36,0-5.87-2.48-7.71-6.92-1.48-3.57-.08-8.09,3.94-10.14,6.43-3.27,13.11-6.07,19.74-8.91,4.52-1.93,9.13-3.66,13.74-5.36,2.12-.78,4.35-1.27,6.54-1.9.43-.05.85-.08,1.25-.08m0-10c-.81,0-1.64.05-2.47.15l-.77.1-.75.21c-.62.18-1.24.34-1.87.51-1.63.43-3.48.92-5.38,1.62-4.54,1.67-9.38,3.47-14.22,5.55l-1.76.75c-6.11,2.61-12.42,5.31-18.58,8.43-8.4,4.27-12.2,14.32-8.66,22.88,4.72,11.4,12.65,13.1,16.95,13.1,2.15,0,4.35-.41,6.54-1.23,11.66-4.34,24.01-9.27,38.86-15.51,4-1.68,7.21-5.13,9.05-9.72,1.97-4.92,2.01-10.22.12-14.54-2.01-4.59-6.89-12.29-17.06-12.29h0Z"/><path class="cls-4" d="m521.54,239.86c-5.88,0-10.82-3.73-13.54-10.24-1.34-3.2-1.09-7.09.69-10.67,1.67-3.35,4.5-6.06,7.78-7.43,9.15-3.82,21.2-8.83,33.3-13.73,1.62-.66,3.2-.81,4.47-.93.39-.04.78-.07,1.16-.13l.14-.02h.14c.61-.07,1.22-.1,1.81-.1,6.28,0,11.02,3.41,12.99,9.36,2.47,7.46-.87,14.66-8.31,17.94-11.67,5.13-23.59,10.1-34.81,14.74-1.95.81-3.91,1.21-5.83,1.21Z"/><path class="cls-4" d="m557.49,201.61c4.04,0,6.92,1.95,8.24,5.93,1.66,5.02-.41,9.52-5.57,11.79-11.5,5.06-23.1,9.89-34.71,14.7-1.36.56-2.67.83-3.92.83-3.8,0-6.99-2.54-8.92-7.17-1.63-3.89,1.19-9.64,5.78-11.55,11.06-4.62,22.14-9.21,33.25-13.72,1.38-.56,3.01-.52,4.52-.75.45-.04.9-.07,1.33-.07m0-10c-.75,0-1.52.04-2.29.11l-.29.03-.29.04c-.18.03-.53.06-.87.09-1.42.14-3.58.34-5.88,1.27-12.14,4.92-24.2,9.94-33.34,13.75-4.43,1.85-8.1,5.34-10.33,9.81-2.42,4.88-2.73,10.28-.83,14.82,3.48,8.33,10.27,13.31,18.15,13.31,2.58,0,5.19-.54,7.74-1.6,11.24-4.65,23.19-9.63,34.91-14.79,9.77-4.3,14.31-14.21,11.04-24.09-2.65-8.01-9.28-12.79-17.74-12.79h0Z"/><path class="cls-4" d="m414.07,571.2c-4.41,0-10.34-1.66-13.57-9.55-4.47-10.94-8.99-21.76-13.42-32.17-3.84-9-1.15-17.32,6.68-20.69,1.83-.79,3.75-1.19,5.7-1.19,6.05,0,11.44,3.79,14.06,9.88,4.43,10.28,8.72,20.79,12.87,30.96l.4.97c.63,1.55.96,3.08,1.25,4.42.11.5.21,1.01.34,1.5l.2.8-.07.83c-.89,10.92-7.68,13.32-10.55,13.85-1.36.25-2.67.38-3.89.38Z"/><path class="cls-4" d="m399.46,512.6c3.87,0,7.57,2.46,9.47,6.86,4.55,10.55,8.89,21.2,13.23,31.84.68,1.66.92,3.5,1.37,5.26-.43,5.29-2.63,8.63-6.47,9.34-1.07.2-2.06.29-2.99.29-4.34,0-7.18-2.14-8.94-6.44-4.41-10.78-8.89-21.53-13.45-32.24-2.74-6.42-1.28-11.84,4.06-14.13,1.22-.53,2.48-.78,3.73-.78m0-10h0c-2.64,0-5.22.54-7.68,1.6-10.41,4.48-14.23,15.68-9.3,27.24,4.43,10.39,8.94,21.19,13.4,32.1,3.34,8.16,9.8,12.66,18.2,12.66,1.52,0,3.13-.15,4.79-.46,3.13-.57,13.44-3.59,14.64-18.36l.13-1.65-.41-1.61c-.11-.44-.2-.88-.3-1.32-.31-1.48-.71-3.31-1.51-5.27l-.39-.96c-4.16-10.19-8.46-20.73-12.91-31.06-3.43-7.96-10.58-12.9-18.65-12.9h0Z"/><path class="cls-4" d="m225.2,117.39c-6.21,0-11.29-3.25-13.58-8.7-4.74-11.27-9.55-22.85-14.27-34.44-3.13-7.66-.33-15.45,6.81-18.96,2.05-1.01,4.31-1.54,6.52-1.54,5.51,0,10.41,3.25,12.79,8.47,4.41,9.72,8.56,19.7,12.58,29.36l2.43,5.84c.71,1.69.69,3.3.67,4.47,0,.27-.01.54,0,.8l.02.24v.24c-.21,7.32-4.16,12.62-10.33,13.84-1.22.24-2.44.36-3.63.36Z"/><path class="cls-4" d="m210.67,58.75c3.38,0,6.57,1.88,8.23,5.54,5.25,11.56,10.05,23.33,14.94,35.06.45,1.09.22,2.46.31,3.7-.14,4.97-2.42,8.31-6.29,9.07-.91.18-1.8.27-2.66.27-4.08,0-7.44-1.99-8.98-5.64-4.81-11.44-9.56-22.9-14.25-34.39-2.17-5.32-.37-10.24,4.38-12.58,1.4-.69,2.88-1.03,4.32-1.03m0-10h0c-2.97,0-5.99.71-8.72,2.05-9.6,4.71-13.4,15.13-9.23,25.33,4.73,11.59,9.54,23.19,14.3,34.49,3.05,7.26,10.03,11.76,18.19,11.76,1.51,0,3.06-.15,4.6-.46,8.45-1.67,14.09-8.98,14.35-18.61v-.49s-.02-.44-.02-.44c0-.14,0-.29,0-.44.02-1.42.04-3.81-1.06-6.45-.81-1.94-1.62-3.88-2.42-5.82-4.03-9.7-8.2-19.73-12.65-29.52-3.2-7.04-9.84-11.41-17.34-11.41h0Z"/><path class="cls-4" d="m551.17,426.31c-2.62-1.02-5.33-2.08-7.99-3.17l-5.55-2.27c-7.02-2.86-14.27-5.82-21.36-8.91-5.65-2.46-8.71-7.34-8.4-13.38.49-9.37,5.75-12,8.84-12.74,1.77-.42,3.71-.65,5.61-.65,2.61,0,5.12.42,7.28,1.21,6.52,2.39,12.99,5.08,19.25,7.68,3.78,1.57,7.68,3.19,11.53,4.72,13.66,5.43,11.79,15.46,10.35,19.52-2.35,6.63-7.04,8.66-13.37,9.67l-1.35.22s-3.65-1.44-4.83-1.9Z"/><path class="cls-4" d="m522.32,390.19c1.93,0,3.87.28,5.56.9,10.34,3.79,20.41,8.29,30.65,12.35,7.01,2.78,9.62,7.18,7.49,13.21-1.43,4.03-3.85,5.51-9.45,6.4-3.83-1.51-7.68-2.98-11.49-4.55-8.96-3.67-17.94-7.27-26.81-11.14-3.52-1.53-5.62-4.42-5.4-8.54.19-3.64,1.32-7.25,5.01-8.13,1.39-.33,2.92-.51,4.45-.51m0-10c-2.31,0-4.59.26-6.77.78-2.8.67-11.97,3.88-12.68,17.34-.43,8.12,3.83,14.94,11.39,18.23,7.12,3.1,14.39,6.07,21.41,8.93,1.87.76,3.74,1.52,5.6,2.29,2.69,1.1,5.41,2.17,8.04,3.2,1.19.46,2.38.93,3.56,1.4l2.55,1.01,2.7-.43c6.28-1,13.91-3.38,17.3-12.94,3.09-8.73,1.24-20.09-13.22-25.84-3.8-1.51-7.68-3.12-11.44-4.68-6.31-2.62-12.84-5.34-19.46-7.76-2.7-.99-5.81-1.51-9-1.51h0Z"/><rect class="cls-4" x="316.51" y="17.52" width="10" height="2.96" transform="translate(4.56 76.2) rotate(-13.61)"/><path class="cls-4" d="m321.16,17.57c.23.96.46,1.92.7,2.88-.23-.96-.46-1.92-.7-2.88m9.72-2.35l-19.44,4.71.35,1.44.35,1.44,19.44-4.71-.35-1.44-.35-1.44h0Z"/><rect class="cls-4" x="320.03" y="601.05" width="2.96" height="10" transform="translate(-343.1 776.23) rotate(-76.42)"/><path class="cls-4" d="m321.86,604.61c-.23.96-.46,1.92-.7,2.88.23-.96.46-1.92.7-2.88m-9.72-2.35l-.63,2.6-.07.28,19.44,4.7.7-2.88-19.44-4.7h0Z"/></g><path class="cls-4" d="m269.6,176.26c-5.5,0-10-4.5-10-10v-2.5c0-5.5-4.5-10-10-10h-80.87c-5.5,0-10,4.5-10,10v2.5c0,5.5-4.5,10-10,10h-11.21c-5.5,0-10,4.5-10,10v191.58c0,5.5,4.5,10,10,10h302.41c5.5,0,10-4.5,10-10v-191.58c0-5.5-4.5-10-10-10h-170.34Z"/><path class="cls-4" d="m169.45,426.77c-9.37,0-17-7.63-17-17v-191.58c0-9.37,7.63-17,17-17h11.21c1.63,0,3-1.37,3-3v-2.5c0-9.37,7.63-17,17-17h80.87c9.37,0,17,7.63,17,17v2.5c0,1.63,1.37,3,3,3h170.33c9.37,0,17,7.63,17,17v191.58c0,9.37-7.63,17-17,17H169.45Z"/><path class="cls-2" d="m281.53,185.69c5.5,0,10,4.5,10,10v2.5c0,5.5,4.5,10,10,10h170.34c5.5,0,10,4.5,10,10v191.58c0,5.5-4.5,10-10,10H169.45c-5.5,0-10-4.5-10-10v-191.58c0-5.5,4.5-10,10-10h11.21c5.5,0,10-4.5,10-10v-2.5c0-5.5,4.5-10,10-10h80.87m0-14h-80.87c-12.73,0-23.17,9.96-23.95,22.5h-7.25c-13.23,0-24,10.77-24,24v191.58c0,13.23,10.77,24,24,24h302.41c13.23,0,24-10.77,24-24v-191.58c0-13.23-10.77-24-24-24h-166.38c-.78-12.54-11.22-22.5-23.95-22.5h0Z"/><rect class="cls-3" x="180.75" y="228.04" width="336.41" height="225.58" rx="17" ry="17"/><path class="cls-2" d="m500.17,235.04c5.5,0,10,4.5,10,10v191.58c0,5.5-4.5,10-10,10H197.75c-5.5,0-10-4.5-10-10v-191.58c0-5.5,4.5-10,10-10h302.41m0-14H197.75c-13.23,0-24,10.77-24,24v191.58c0,13.23,10.77,24,24,24h302.41c13.23,0,24-10.77,24-24v-191.58c0-13.23-10.77-24-24-24h0Z"/><path class="cls-4" d="m343.71,383.91c-2,0-3.95-.72-5.97-2.21-1.63-1.21-3.28-2.4-4.93-3.59-2.77-2-5.63-4.08-8.42-6.2-2.14-1.63-4.13-3.38-6.06-5.08-.55-.48-1.09-.96-1.64-1.44-3.98-3.46-7.4-7.44-10.16-11.83-2.83-4.49-4.5-8.95-5.13-13.61-1.1-8.22.95-15.61,6.07-21.98,3.42-4.24,7.88-7.38,13.26-9.31,2.67-.96,5.09-1.42,7.4-1.42.54,0,1.09.03,1.61.08.42-.02.83-.03,1.24-.03,4.54,0,8.7,1.1,12.68,3.36,4.01-2.25,8.33-3.39,12.87-3.4h.13c5.49,0,10.19,1.11,14.37,3.38,5.95,3.24,10.27,7.9,12.84,13.84,1.22,2.81,1.96,5.87,2.27,9.37.66,7.49-1.04,14.12-4.91,19.15-5.45,7.08-24.67,23.55-25.49,24.25l-.14.12-1.7,1.25c-1.59,1.17-3.23,2.37-4.92,3.52-1.75,1.2-3.47,1.78-5.27,1.78Z"/><path class="cls-2" d="m328.13,311.9c.49,0,.98.03,1.47.1.47-.03.94-.04,1.39-.04,4.46,0,8.36,1.32,11.96,3.74.23.15.45.24.68.24.25,0,.51-.1.82-.3,3.66-2.4,7.63-3.7,12.1-3.72.04,0,.08,0,.12,0,4.3,0,8.35.75,12.13,2.81,4.88,2.66,8.55,6.43,10.79,11.59,1.11,2.55,1.66,5.17,1.9,7.93.51,5.78-.52,11.43-3.96,15.9-5.22,6.78-24.82,23.55-24.82,23.55-2.11,1.54-4.2,3.11-6.35,4.58-.9.61-1.74.97-2.64.97-.96,0-1.98-.4-3.21-1.3-4.42-3.26-8.92-6.41-13.29-9.74-2.59-1.98-5.01-4.19-7.47-6.33-3.62-3.14-6.72-6.74-9.27-10.79-2.27-3.61-3.88-7.47-4.45-11.74-.92-6.88.72-13.02,5.08-18.44,2.98-3.7,6.78-6.25,11.21-7.84,1.92-.69,3.9-1.15,5.82-1.15m-11.81,26.62c1.22,0,2.16-1.08,2.12-2.55-.05-1.72.28-3.34,1.06-4.88,1.53-3.02,3.89-5.08,7.12-6.04,1.43-.43,2.95-.53,4.4-.88.95-.23,1.43-1.24,1.15-2.47-.18-.83-.76-1.27-1.72-1.32-.29-.02-.58-.02-.87-.02-2.84,0-5.45.79-7.86,2.34-4.62,2.96-7.24,7.11-7.48,12.66,0,.21,0,.42,0,.63,0,1.64.73,2.54,2.08,2.54,0,0,0,0,0,0m11.81-35.95c-2.81,0-5.83.57-8.97,1.7-6.2,2.23-11.36,5.85-15.32,10.77-5.96,7.4-8.33,15.99-7.06,25.52.71,5.34,2.61,10.4,5.8,15.47,3.01,4.78,6.73,9.11,11.05,12.87.54.47,1.08.94,1.62,1.42,1.99,1.75,4.05,3.56,6.31,5.29,2.84,2.16,5.73,4.26,8.53,6.28,1.63,1.18,3.26,2.36,4.89,3.56,2.81,2.07,5.75,3.12,8.74,3.12,2.72,0,5.38-.87,7.9-2.59,1.75-1.2,3.43-2.43,5.04-3.62.51-.38,1.03-.76,1.54-1.13l.29-.21.28-.24c2.08-1.78,20.5-17.61,26.15-24.95,4.6-5.98,6.63-13.73,5.86-22.41-.35-4-1.21-7.54-2.63-10.81-2.99-6.92-8-12.32-14.88-16.08-4.88-2.66-10.31-3.95-16.6-3.95h-.15c-4.49.01-8.79.97-12.84,2.83-4-1.86-8.25-2.79-12.68-2.79-.37,0-.74,0-1.12.02-.57-.05-1.16-.07-1.74-.07h0Z"/><path class="cls-1" d="m314.23,335.35c.24-5.55,2.86-9.7,7.48-12.66,2.66-1.71,5.56-2.49,8.73-2.31.96.05,1.54.49,1.72,1.32.27,1.23-.2,2.24-1.15,2.47-1.45.35-2.97.45-4.4.88-3.23.96-5.59,3.02-7.12,6.04-.78,1.54-1.11,3.16-1.06,4.88.04,1.48-.9,2.56-2.12,2.55-1.35,0-2.08-.9-2.08-2.54,0-.21,0-.42,0-.63Z"/></svg>