<?xml version="1.0" encoding="UTF-8"?><svg id="Layer_2" xmlns="http://www.w3.org/2000/svg" xmlns:xlink="http://www.w3.org/1999/xlink" viewBox="0 0 53.1 13.92"><defs><style>.cls-1{fill:url(#x);}.cls-2{letter-spacing:-.04em;}.cls-3{letter-spacing:-.04em;}.cls-4{letter-spacing:-.03em;}.cls-5{font-family:YesevaOne-Regular, 'Yeseva One';font-size:12px;}</style><linearGradient id="x" x1="2.14" y1="3.73" x2="46.55" y2="10.16" gradientUnits="userSpaceOnUse"><stop offset=".41" stop-color="#b22066"/><stop offset="1" stop-color="#7b3366"/></linearGradient></defs><g id="Layer_1-2"><g><text class="cls-5" transform="translate(0 10.2)"><tspan class="cls-3" x="0" y="0">recipa</tspan><tspan class="cls-4" x="35.1" y="0">r</tspan><tspan class="cls-2" x="40.8" y="0">se</tspan></text><g><path class="cls-1" d="M.48,10.02l.72-.18V4.56l-.72-.18v-.18H1.56c.47,0,.84,.15,1.12,.46,.1,.12,.19,.27,.26,.44,.12-.18,.27-.34,.44-.48,.4-.32,.85-.48,1.34-.48,.42,0,.74,.1,.95,.29,.21,.2,.32,.48,.32,.85,0,.27-.08,.49-.25,.65-.16,.16-.38,.25-.65,.25-.11,0-.22,0-.34-.02l-.14-.04v-1.68c-.41,0-.78,.16-1.12,.48-.16,.16-.29,.32-.38,.48v4.44l.72,.18v.18H.48v-.18Z"/><path class="cls-1" d="M6.91,9.53c-.57-.56-.85-1.34-.85-2.33,0-.65,.12-1.21,.37-1.69,.25-.48,.59-.85,1.04-1.1,.44-.26,.95-.38,1.53-.38s1.08,.11,1.52,.32,.77,.51,1.01,.87,.35,.77,.35,1.21c0,.2-.02,.37-.06,.52l-.06,.2c-.34,.07-.72,.13-1.12,.18-.84,.12-1.69,.18-2.54,.18,0,.93,.13,1.59,.38,1.99,.26,.4,.61,.59,1.06,.59,.31,0,.6-.07,.87-.22,.27-.15,.48-.34,.64-.59,.16-.24,.23-.49,.23-.75h.3c0,.32-.1,.62-.29,.91s-.46,.52-.8,.69c-.34,.17-.74,.26-1.19,.26-1.02,0-1.82-.28-2.39-.85Zm2.44-2.39c.14,0,.28-.03,.43-.06,0-.04,.03-.13,.06-.26,.04-.2,.06-.41,.06-.64,0-.66-.09-1.15-.26-1.46-.18-.31-.39-.46-.64-.46-.6,0-.9,.98-.9,2.94,.51,0,.93-.02,1.25-.06Z"/><path class="cls-1" d="M13.15,9.53c-.57-.56-.85-1.34-.85-2.33s.28-1.77,.85-2.33c.57-.56,1.36-.85,2.39-.85,.74,0,1.29,.13,1.66,.38s.56,.57,.56,.94c0,.27-.08,.49-.25,.65s-.38,.25-.65,.25c-.11,0-.22,0-.34-.02l-.14-.04v-1.8l-.17-.06c-.12-.04-.26-.06-.43-.06-.46,0-.81,.22-1.06,.65-.25,.43-.38,1.2-.38,2.29s.13,1.81,.38,2.24c.25,.43,.61,.64,1.06,.64,.31,0,.6-.07,.87-.22,.27-.15,.48-.34,.64-.59,.16-.24,.23-.49,.23-.75h.3c0,.32-.1,.62-.29,.91s-.46,.52-.8,.69c-.34,.17-.74,.26-1.19,.26-1.02,0-1.82-.28-2.39-.85Z"/><path class="cls-1" d="M18.18,10.02l.72-.18V4.56l-.72-.18v-.18h1.56c.72,0,1.08,.36,1.08,1.08v4.56l.72,.18v.18h-3.36v-.18Zm.96-6.78c-.16-.16-.24-.36-.24-.6s.08-.44,.24-.6,.36-.24,.6-.24,.44,.08,.6,.24c.16,.16,.24,.36,.24,.6s-.08,.44-.24,.6c-.16,.16-.36,.24-.6,.24s-.44-.08-.6-.24Z"/><path class="cls-1" d="M21.66,12.42l.72-.18V4.56l-.72-.18v-.18h1.08c.47,0,.84,.15,1.12,.46,.1,.12,.19,.27,.26,.44,.1-.21,.24-.39,.4-.54,.36-.36,.81-.54,1.34-.54,.47,0,.89,.12,1.26,.37,.37,.24,.66,.6,.88,1.08,.22,.48,.32,1.05,.32,1.73,0,1.02-.24,1.81-.71,2.36-.48,.55-1.12,.82-1.93,.82-.38,0-.72-.08-1.01-.24-.12-.05-.24-.14-.37-.24v2.34l.72,.18v.18h-3.36v-.18Zm4.34-3c.19-.4,.28-1.14,.28-2.22s-.09-1.75-.26-2.15c-.17-.4-.39-.61-.64-.61-.3,0-.58,.16-.82,.48-.1,.14-.19,.3-.26,.48v4.14c.11,.11,.2,.19,.26,.24,.22,.16,.43,.24,.64,.24,.34,0,.61-.2,.8-.6Z"/><path class="cls-1" d="M29.5,9.92c-.38-.3-.58-.69-.58-1.16,0-.31,.07-.62,.2-.92,.06-.14,.13-.28,.22-.4,.33-.08,.69-.15,1.07-.22,.86-.14,1.63-.23,2.29-.26v-.36c0-.89-.11-1.5-.32-1.84-.22-.34-.55-.5-1-.5-.17,0-.31,.02-.43,.06l-.17,.06v1.8l-.16,.04c-.13,.02-.24,.02-.32,.02-.27,0-.49-.08-.65-.25s-.25-.38-.25-.65c0-.37,.19-.68,.56-.94,.37-.26,.93-.38,1.66-.38,.62,0,1.16,.11,1.61,.33,.45,.22,.8,.52,1.03,.91,.24,.39,.35,.83,.35,1.34v3.24l.72,.18v.18h-1.08c-.48,0-.85-.15-1.12-.44-.11-.12-.2-.27-.26-.46-.11,.2-.24,.38-.4,.54-.36,.36-.81,.54-1.34,.54-.71,0-1.26-.15-1.65-.46Zm2.93-.44c.09-.12,.18-.28,.28-.48v-1.74c-.37,0-.72,.02-1.06,.06-.25,.03-.42,.05-.5,.06-.04,.09-.08,.21-.12,.36-.08,.3-.12,.6-.12,.9,0,.45,.07,.78,.2,1,.14,.22,.31,.32,.52,.32,.3,0,.56-.16,.8-.48Z"/><path class="cls-1" d="M35.58,10.02l.72-.18V4.56l-.72-.18v-.18h1.08c.47,0,.84,.15,1.12,.46,.1,.12,.19,.27,.26,.44,.12-.18,.27-.34,.44-.48,.4-.32,.85-.48,1.34-.48,.42,0,.74,.1,.95,.29,.21,.2,.32,.48,.32,.85,0,.27-.08,.49-.25,.65-.16,.16-.38,.25-.65,.25-.11,0-.22,0-.34-.02l-.14-.04v-1.68c-.41,0-.78,.16-1.12,.48-.16,.16-.29,.32-.38,.48v4.44l.72,.18v.18h-3.36v-.18Z"/><path class="cls-1" d="M42.77,10.06c-.19-.1-.35-.22-.47-.34-.13,.18-.27,.31-.42,.41-.07,.05-.15,.09-.24,.13h-.3v-2.04h.48c.1,.34,.26,.65,.46,.94,.42,.62,.95,.92,1.58,.92,.34,0,.59-.08,.76-.25,.17-.16,.26-.4,.26-.71,0-.26-.12-.49-.35-.67-.24-.18-.61-.4-1.11-.67-.43-.22-.78-.41-1.05-.58-.27-.17-.5-.39-.68-.65-.19-.26-.28-.57-.28-.92,0-.48,.21-.87,.62-1.17s1.05-.45,1.9-.45c.42,0,.82,.11,1.18,.34,.18,.1,.33,.21,.46,.32,.1-.14,.24-.28,.42-.41,.14-.08,.22-.12,.24-.13h.3v2.04h-.48c-.12-.34-.27-.65-.44-.92-.4-.62-.88-.94-1.43-.94-.22,0-.4,.08-.55,.24-.15,.16-.23,.36-.23,.6,0,.3,.13,.56,.38,.76s.64,.44,1.16,.7c.42,.22,.76,.41,1.01,.57s.47,.37,.65,.61,.27,.52,.27,.84c0,1.16-.92,1.74-2.76,1.74-.5,0-.94-.11-1.33-.32Z"/><path class="cls-1" d="M48.13,9.53c-.57-.56-.85-1.34-.85-2.33,0-.65,.12-1.21,.37-1.69,.25-.48,.59-.85,1.04-1.1,.44-.26,.95-.38,1.53-.38s1.08,.11,1.52,.32c.44,.22,.77,.51,1.01,.87,.24,.36,.35,.77,.35,1.21,0,.2-.02,.37-.06,.52l-.06,.2c-.34,.07-.72,.13-1.12,.18-.84,.12-1.69,.18-2.54,.18,0,.93,.13,1.59,.38,1.99,.26,.4,.61,.59,1.06,.59,.31,0,.6-.07,.87-.22,.27-.15,.48-.34,.64-.59,.16-.24,.23-.49,.23-.75h.3c0,.32-.1,.62-.29,.91s-.46,.52-.8,.69c-.34,.17-.74,.26-1.19,.26-1.02,0-1.82-.28-2.39-.85Zm2.44-2.39c.14,0,.28-.03,.43-.06,0-.04,.03-.13,.06-.26,.04-.2,.06-.41,.06-.64,0-.66-.09-1.15-.26-1.46-.18-.31-.39-.46-.64-.46-.6,0-.9,.98-.9,2.94,.51,0,.93-.02,1.25-.06Z"/></g></g></g></svg>